<svg xmlns="http://www.w3.org/2000/svg" viewBox="0 0 358.15 222.85"><defs><style>.cls-1{fill:#1d1d1b;}</style></defs><title>Fichier 2</title><g id="Calque_2" data-name="Calque 2"><g id="Calque_1-2" data-name="Calque 1"><path class="cls-1" d="M163.85,212.59c-10.26,5.13-30.78,10.26-57.07,10.26C45.85,222.85,0,184.37,0,113.51,0,45.85,45.85,0,112.87,0c26.93,0,43.93,5.77,51.3,9.62l-6.73,22.77c-10.58-5.13-25.65-9-43.61-9-50.66,0-84.33,32.38-84.33,89.14,0,52.9,30.46,86.89,83.05,86.89,17,0,34.31-3.52,45.53-9Z"></path><path class="cls-1" d="M250.1,219.64,179.55,3.53h30.14L243.36,110c9.3,29.18,17.32,55.47,23.09,80.81h.64c6.09-25,15.07-52.27,24.69-80.49L328.33,3.53h29.82L280.88,219.64Z"></path></g></g></svg>