<?xml version="1.0" standalone="no"?>
<!DOCTYPE svg PUBLIC "-//W3C//DTD SVG 20010904//EN"
 "http://www.w3.org/TR/2001/REC-SVG-20010904/DTD/svg10.dtd">
<svg version="1.0" xmlns="http://www.w3.org/2000/svg"
 width="192.000000pt" height="192.000000pt" viewBox="0 0 192.000000 192.000000"
 preserveAspectRatio="xMidYMid meet">
<metadata>
Created by potrace 1.11, written by Peter Selinger 2001-2013
</metadata>
<g transform="translate(0.000000,192.000000) scale(0.100000,-0.100000)"
fill="#000000" stroke="none">
<path d="M762 1809 c-291 -49 -555 -265 -662 -543 -86 -223 -74 -489 31 -699
121 -240 349 -415 608 -466 454 -90 899 196 1007 647 15 67 19 74 45 79 16 3
29 9 29 13 0 5 9 6 20 3 14 -4 20 0 20 11 0 9 6 27 14 39 7 12 16 36 20 52 5
29 5 29 -5 5 -6 -14 -15 -35 -20 -47 -10 -26 -29 -31 -29 -8 0 8 5 15 11 15 5
0 8 4 4 9 -3 5 -1 12 3 15 12 7 7 54 -9 84 -8 13 -26 31 -43 39 -26 14 -28 14
-23 -2 4 -9 3 -14 -2 -11 -16 11 -20 46 -4 46 36 0 89 -46 99 -87 4 -13 10
-23 15 -23 5 0 0 18 -11 39 -22 43 -67 81 -98 81 -15 0 -22 13 -37 68 -38 147
-146 328 -252 421 -169 150 -344 221 -558 226 -66 1 -144 -1 -173 -6z m354
-29 c292 -75 516 -292 607 -588 l26 -83 -40 -15 c-39 -16 -89 -65 -89 -87 0
-7 9 1 19 17 31 47 111 88 111 56 0 -5 -8 -10 -17 -10 -36 -1 -91 -71 -87
-110 1 -8 2 -20 3 -27 0 -6 13 -26 28 -43 24 -29 28 -31 39 -16 8 11 14 13 19
6 3 -5 12 -7 18 -4 9 5 9 4 0 -6 -6 -7 -9 -19 -6 -26 16 -42 -91 17 -109 60
-7 17 -12 34 -10 39 1 4 -3 7 -8 7 -14 0 -13 -5 9 -49 21 -40 53 -66 95 -77
28 -7 28 -6 -1 -114 -68 -246 -258 -455 -505 -553 -173 -70 -332 -76 -569 -22
-41 9 -177 79 -236 121 -71 51 -162 142 -207 207 -194 284 -200 670 -14 955
135 206 362 351 593 378 28 4 52 8 54 10 11 10 210 -9 277 -26z m584 -759
c-17 -17 -29 -35 -25 -41 3 -5 1 -10 -4 -10 -14 0 -14 6 0 33 12 21 51 58 57
52 2 -1 -11 -17 -28 -34z m150 -54 c0 -16 -4 -26 -9 -23 -4 3 -7 17 -6 30 2
14 -5 32 -16 42 -10 9 -19 22 -19 27 0 6 11 -3 25 -19 14 -16 25 -42 25 -57z
m-156 -56 c9 -7 16 -19 16 -25 0 -6 -11 2 -25 18 -14 16 -25 36 -24 45 0 12 3
10 9 -4 4 -12 15 -27 24 -34z m138 2 c-6 -3 -9 -10 -5 -16 3 -7 3 -9 -2 -5 -4
4 -14 1 -22 -7 -8 -8 -19 -15 -24 -15 -5 0 5 13 23 29 18 16 35 27 38 24 3 -3
-1 -8 -8 -10z m-12 -53 c-6 -11 -17 -20 -25 -20 -8 0 -17 0 -20 0 -8 0 -6 10
3 11 4 1 16 8 27 15 26 18 28 18 15 -6z"/>
<path d="M889 1500 c-14 -11 -18 -19 -11 -20 7 0 11 -4 8 -9 -9 -15 32 0 45
16 10 11 9 14 -2 11 -8 -2 -13 3 -11 10 3 16 -2 15 -29 -8z"/>
<path d="M680 1440 c-9 -6 -10 -10 -3 -10 6 0 15 5 18 10 8 12 4 12 -15 0z"/>
<path d="M803 1440 c-252 -50 -434 -314 -390 -565 29 -165 122 -293 266 -369
387 -201 830 171 703 590 -74 245 -325 394 -579 344z"/>
<path d="M1170 1417 c0 -3 12 -12 26 -22 15 -9 23 -12 20 -6 -7 11 -46 35 -46
28z"/>
<path d="M599 1393 c-13 -17 -13 -17 6 -3 11 8 22 16 24 17 2 2 0 3 -6 3 -6 0
-17 -8 -24 -17z"/>
<path d="M390 1365 c-7 -9 -11 -17 -9 -20 3 -2 10 5 17 15 14 24 10 26 -8 5z"/>
<path d="M1245 1360 c10 -11 20 -20 23 -20 3 0 -3 9 -13 20 -10 11 -20 20 -23
20 -3 0 3 -9 13 -20z"/>
<path d="M1411 1363 c7 -12 15 -20 18 -17 3 2 -3 12 -13 22 -17 16 -18 16 -5
-5z"/>
<path d="M525 1340 c-3 -6 1 -7 9 -4 18 7 21 14 7 14 -6 0 -13 -4 -16 -10z"/>
<path d="M1295 1310 c10 -11 20 -20 23 -20 3 0 -3 9 -13 20 -10 11 -20 20 -23
20 -3 0 3 -9 13 -20z"/>
<path d="M479 1283 c-13 -16 -12 -17 4 -4 9 7 17 15 17 17 0 8 -8 3 -21 -13z"/>
<path d="M1613 975 c0 -8 4 -12 9 -9 4 3 8 9 8 15 0 5 -4 9 -8 9 -5 0 -9 -7
-9 -15z"/>
<path d="M1720 859 c0 -5 5 -7 10 -4 6 3 10 8 10 11 0 2 -4 4 -10 4 -5 0 -10
-5 -10 -11z"/>
<path d="M400 751 c0 -6 4 -13 10 -16 6 -3 7 1 4 9 -7 18 -14 21 -14 7z"/>
<path d="M1349 663 c-13 -16 -12 -17 4 -4 16 13 21 21 13 21 -2 0 -10 -8 -17
-17z"/>
<path d="M301 648 c-13 -22 -13 -22 4 -8 17 14 17 13 11 -8 -5 -16 -3 -29 9
-42 11 -12 13 -20 5 -25 -6 -4 -16 8 -25 27 -8 18 -14 26 -15 17 0 -9 9 -27
20 -40 19 -22 21 -23 31 -6 5 9 15 15 21 11 7 -4 5 -10 -3 -16 -11 -8 -11 -9
1 -5 8 2 14 10 12 16 -1 7 2 20 7 30 7 13 5 22 -10 35 -11 9 -24 14 -29 11 -5
-3 -11 -1 -14 4 -4 5 2 12 11 14 15 4 15 5 -2 6 -11 0 -26 -9 -34 -21z"/>
<path d="M370 657 c8 -7 21 -19 29 -27 11 -13 12 -12 3 6 -7 12 -19 24 -29 28
-16 5 -16 4 -3 -7z"/>
<path d="M396 595 c-9 -26 -7 -32 5 -12 6 10 9 21 6 23 -2 3 -7 -2 -11 -11z"/>
<path d="M1284 578 l-29 -33 33 29 c30 28 37 36 29 36 -2 0 -16 -15 -33 -32z"/>
<path d="M510 586 c0 -2 8 -10 18 -17 15 -13 16 -12 3 4 -13 16 -21 21 -21 13z"/>
<path d="M557 539 c7 -7 15 -10 18 -7 3 3 -2 9 -12 12 -14 6 -15 5 -6 -5z"/>
<path d="M1235 539 c-4 -6 -5 -12 -2 -15 2 -3 7 2 10 11 7 17 1 20 -8 4z"/>
<path d="M620 496 c0 -3 9 -10 20 -16 11 -6 20 -8 20 -6 0 3 -9 10 -20 16 -11
6 -20 8 -20 6z"/>
<path d="M1165 490 c-3 -6 1 -7 9 -4 18 7 21 14 7 14 -6 0 -13 -4 -16 -10z"/>
<path d="M1125 470 c-3 -6 1 -7 9 -4 18 7 21 14 7 14 -6 0 -13 -4 -16 -10z"/>
<path d="M1269 413 c-13 -17 -13 -17 6 -3 11 8 22 16 24 17 2 2 0 3 -6 3 -6 0
-17 -8 -24 -17z"/>
</g>
</svg>
